<svg width="16" height="16" viewBox="0 0 16 16" fill="none" xmlns="http://www.w3.org/2000/svg">
<g clip-path="url(#clip0_201_2)">
<path d="M11.7415 9.30368C11.1117 9.30368 10.5223 9.0368 9.98595 8.60224L10.1165 7.98912L10.1223 7.96672C10.2387 7.31392 10.6074 6.2176 11.7415 6.2176C12.592 6.2176 13.2839 6.91072 13.2839 7.76192C13.2813 8.61056 12.5895 9.30368 11.7415 9.30368V9.30368ZM11.7415 4.65281C10.2925 4.65281 9.16931 5.59552 8.71299 7.1456C8.01539 6.09792 7.48803 4.84033 7.17891 3.78113H5.61987V7.84384C5.61987 8.64448 4.96771 9.29728 4.16771 9.29728C3.36771 9.29728 2.71619 8.64448 2.71619 7.84384V3.78113H1.15651V7.84384C1.15075 9.50784 2.50371 10.8736 4.16515 10.8736C5.82659 10.8736 7.17955 9.50784 7.17955 7.84384V7.16224C7.48291 7.7952 7.85411 8.43392 8.30531 9.00224L7.34979 13.4995H8.94659L9.63843 10.2374C10.2451 10.6266 10.9427 10.8704 11.7427 10.8704C13.4528 10.8704 14.8448 9.46752 14.8448 7.75552C14.8435 6.04672 13.4515 4.65281 11.7415 4.65281V4.65281Z" fill="white"/>
</g>
<defs>
<clipPath id="clip0_201_2">
<rect width="16" height="16" fill="white"/>
</clipPath>
</defs>
</svg>
